<svg width="12" height="13" viewBox="0 0 12 13" fill="none" xmlns="http://www.w3.org/2000/svg">
<path d="M1.03809 6.50968C1.03809 5.61004 1.26084 4.7782 1.70636 4.01415C2.15187 3.2501 2.75558 2.6464 3.51747 2.20304C4.27937 1.75968 5.10798 1.53799 6.00331 1.53799C6.67481 1.53799 7.31618 1.66928 7.92742 1.93186C8.53866 2.19443 9.06596 2.5474 9.50932 2.99076C9.95268 3.43412 10.3057 3.9625 10.5682 4.57589C10.8308 5.18928 10.9621 5.83387 10.9621 6.50968C10.9621 7.18118 10.8308 7.82362 10.5682 8.43701C10.3057 9.0504 9.95268 9.5777 9.50932 10.0189C9.06596 10.4601 8.53866 10.8109 7.92742 11.0714C7.31618 11.3318 6.67481 11.462 6.00331 11.462C5.32751 11.462 4.68291 11.3307 4.06952 11.0681C3.45613 10.8056 2.92776 10.4526 2.48439 10.0092C2.04103 9.56587 1.68914 9.03964 1.42872 8.43056C1.1683 7.82147 1.03809 7.18118 1.03809 6.50968ZM2.12927 6.50968C2.12927 7.55567 2.51022 8.46392 3.27212 9.23442C4.03401 9.99632 4.94441 10.3773 6.00331 10.3773C6.70064 10.3773 7.34632 10.204 7.94033 9.8575C8.53435 9.51098 9.0057 9.04072 9.35436 8.4467C9.70302 7.85268 9.87735 7.20701 9.87735 6.50968C9.87735 5.81235 9.70302 5.1656 9.35436 4.56943C9.0057 3.97326 8.53435 3.50192 7.94033 3.15541C7.34632 2.80889 6.70064 2.63564 6.00331 2.63564C5.30599 2.63564 4.66031 2.80889 4.06629 3.15541C3.47227 3.50192 3.00093 3.97326 2.65227 4.56943C2.30361 5.1656 2.12927 5.81235 2.12927 6.50968ZM5.62237 6.50968V3.57187C5.62237 3.46856 5.65788 3.38139 5.7289 3.31037C5.79993 3.23934 5.88709 3.20383 5.9904 3.20383C6.09371 3.20383 6.18087 3.23934 6.2519 3.31037C6.32292 3.38139 6.35843 3.46856 6.35843 3.57187V5.87046L7.58521 5.17959C7.6713 5.12794 7.76385 5.11502 7.86285 5.14085C7.96186 5.16668 8.03503 5.22694 8.08238 5.32164C8.13404 5.40773 8.14587 5.50028 8.1179 5.59928C8.08992 5.69828 8.03288 5.77361 7.94679 5.82527L6.23576 6.78086C6.16258 6.84543 6.0808 6.87771 5.9904 6.87771C5.88709 6.87771 5.79993 6.8422 5.7289 6.77118C5.65788 6.70015 5.62237 6.61299 5.62237 6.50968Z" fill="#838383"/>
</svg>
