<svg width="10" height="11" viewBox="0 0 10 11" fill="none" xmlns="http://www.w3.org/2000/svg">
<path d="M9.97351 4.33949C9.94209 4.24692 9.88424 4.16559 9.80711 4.10552C9.72999 4.04546 9.63696 4.00929 9.53951 4.00149L6.68901 3.77499L5.45551 1.04449C5.41623 0.956548 5.35233 0.881853 5.27154 0.829421C5.19074 0.776989 5.09649 0.749061 5.00018 0.749008C4.90386 0.748955 4.80958 0.77678 4.72873 0.829123C4.64787 0.881466 4.58389 0.956091 4.54451 1.04399L3.31101 3.77499L0.460513 4.00149C0.364741 4.00908 0.273182 4.0441 0.196791 4.10236C0.120399 4.16062 0.0624096 4.23965 0.0297597 4.33001C-0.00289019 4.42036 -0.00881797 4.51821 0.0126856 4.61184C0.0341892 4.70548 0.0822135 4.79094 0.151013 4.85799L2.25751 6.91149L1.51251 10.1375C1.48989 10.2351 1.49714 10.3373 1.53332 10.4308C1.5695 10.5243 1.63295 10.6047 1.71541 10.6617C1.79788 10.7187 1.89557 10.7496 1.99581 10.7503C2.09604 10.7511 2.19419 10.7217 2.27751 10.666L5.00001 8.85099L7.72251 10.666C7.80768 10.7225 7.90812 10.7516 8.01033 10.7494C8.11254 10.7472 8.2116 10.7137 8.29421 10.6535C8.37682 10.5932 8.439 10.5092 8.4724 10.4125C8.50579 10.3159 8.5088 10.2114 8.48101 10.113L7.56651 6.91299L9.83451 4.87199C9.98302 4.73799 10.0375 4.52899 9.97351 4.33949Z" fill="#FFB200"/>
</svg>
